<svg width="63" height="50" viewBox="0 0 63 50" fill="none" xmlns="http://www.w3.org/2000/svg">
<g filter="url(#filter0_d_13_55)">
<path fill-rule="evenodd" clip-rule="evenodd" d="M36.0619 22.464C35.3005 22.7591 34.5663 23.1202 33.8678 23.5433L33.7387 23.6195C35.0653 24.9197 36.687 25.8792 38.4652 26.4159C38.0586 25.944 37.6847 25.445 37.3462 24.9222C36.8422 24.1455 36.4102 23.3244 36.0555 22.4692L36.0619 22.464ZM45.5291 21.7578C44.4236 21.5182 43.2967 21.3915 42.1656 21.3796C40.7895 21.3654 39.4168 21.5193 38.078 21.8379C38.3671 22.5113 38.7125 23.1591 39.1105 23.7744C39.648 24.6084 40.2934 25.3676 41.0298 26.0325C41.528 26.4637 42.0623 26.5037 42.5554 26.0221C43.2865 25.3597 43.9275 24.604 44.4617 23.7744C44.8778 23.1331 45.2371 22.4566 45.5356 21.7527L45.5291 21.7578ZM49.9613 23.484C49.2005 23.0235 48.3964 22.6387 47.5606 22.3349C47.1962 23.2363 46.7467 24.1009 46.2183 24.917C45.8789 25.4392 45.5051 25.9382 45.0993 26.4107C46.939 25.8568 48.6106 24.8506 49.9613 23.484ZM48.2318 20.348C49.3094 20.7346 50.3413 21.2386 51.3088 21.8508C52.3995 20.245 53.0632 18.3878 53.2371 16.4543H48.832C48.7693 17.7697 48.5681 19.0748 48.2318 20.348ZM37.39 19.8523C40.2873 19.1282 43.3142 19.0964 46.2261 19.7593C46.51 18.678 46.683 17.5706 46.7423 16.4543H36.835C36.8973 17.6029 37.0798 18.7418 37.3797 19.8523H37.39ZM32.3873 22.0096C32.5164 21.9218 32.6571 21.8366 32.7952 21.7514C33.6209 21.2512 34.4901 20.8264 35.3921 20.4823C35.0298 19.1669 34.8134 17.8157 34.7467 16.453H30.339C30.5191 18.452 31.222 20.3684 32.377 22.0096H32.3873ZM35.4411 10.3322C34.5228 9.98348 33.6385 9.55132 32.7991 9.04113C32.6623 8.9585 32.5267 8.87329 32.3938 8.78292C31.2349 10.4251 30.5297 12.344 30.3494 14.346H34.7596C34.8372 12.9877 35.0622 11.6418 35.4308 10.3322H35.4411ZM46.1667 11.0513C43.2864 11.6984 40.2951 11.6675 37.4288 10.9609C37.1178 12.0699 36.9232 13.2083 36.848 14.3576H46.723C46.6491 13.2396 46.4627 12.1319 46.1667 11.0513ZM51.2985 8.95205C50.3179 9.57279 49.2706 10.0812 48.1763 10.4677C48.5267 11.7369 48.743 13.0394 48.8216 14.3537H53.2319C53.0575 12.4181 52.3925 10.559 51.2998 8.95205H51.2985ZM47.4974 8.48727C48.3537 8.18301 49.1774 7.79375 49.9562 7.32534C48.5806 5.932 46.8719 4.91342 44.9922 4.36629C45.5087 4.96916 45.9749 5.61339 46.3861 6.29251C46.8129 6.99438 47.1848 7.72814 47.4987 8.48727H47.4974ZM38.1373 8.97528C40.5454 9.53601 43.0466 9.56553 45.4672 9.06178C45.2163 8.47916 44.9256 7.91451 44.5972 7.37182C44.0028 6.38799 43.2709 5.49417 42.4237 4.71745C41.901 4.30948 41.6416 4.31981 41.133 4.71745C40.2861 5.49424 39.555 6.38857 38.9621 7.37311C38.6525 7.88835 38.3774 8.42358 38.1386 8.97528H38.1373ZM33.749 7.18074L33.869 7.25562C34.5859 7.68915 35.3401 8.0577 36.1226 8.35688C36.4236 7.64344 36.7764 6.95303 37.1784 6.29122C37.5896 5.6121 38.0558 4.96787 38.5723 4.36499C36.7585 4.89215 35.103 5.85939 33.7529 7.18074H33.749ZM41.781 1.87717C44.456 1.87615 47.0712 2.66868 49.2959 4.15454C51.5206 5.64039 53.2548 7.75281 54.2791 10.2246C55.3035 12.6964 55.5719 15.4166 55.0506 18.041C54.5293 20.6655 53.2415 23.0763 51.3503 24.9687C49.459 26.861 47.0492 28.1497 44.4256 28.672C41.802 29.1942 39.0825 28.9264 36.6111 27.9025C34.1396 26.8786 32.0273 25.1446 30.5412 22.9197C29.0551 20.6948 28.2621 18.0791 28.2623 15.4034C28.2623 13.6271 28.6121 11.8682 29.2916 10.2271C29.9712 8.58604 30.9673 7.09492 32.223 5.83889C33.4786 4.58287 34.9694 3.58654 36.61 2.90679C38.2506 2.22703 40.009 1.87717 41.7848 1.87717H41.781ZM41.781 4.87164e-07C44.8268 -0.000765583 47.8044 0.901974 50.3373 2.59405C52.8702 4.28613 54.8446 6.69154 56.0107 9.50606C57.1768 12.3206 57.4823 15.4178 56.8886 18.406C56.2948 21.3942 54.8285 24.1392 52.6751 26.2938C50.5216 28.4484 47.7777 29.9158 44.7905 30.5105C41.8032 31.1051 38.7068 30.8003 35.8927 29.6346C33.0787 28.4688 30.6734 26.4946 28.9812 23.9614C27.2889 21.4282 26.3857 18.45 26.3857 15.4034C26.3857 11.3181 28.0081 7.40023 30.896 4.51154C33.7839 1.62285 37.7007 4.87164e-07 41.7848 4.87164e-07H41.781Z" fill="#037EE6"/>
<path d="M32.3822 31.021L32.7784 32.6309H51.7851C52.6369 32.6309 53.3339 33.2636 53.3339 34.0433C53.3339 34.8231 52.6434 35.4635 51.7851 35.4635H31.551C30.8463 35.4635 30.2112 35.0194 30.0499 34.3648L25.064 14.1252H19.9413C19.0765 14.1252 18.1924 13.5714 18.1924 12.727C18.1924 11.8827 19.0765 11.3276 19.9413 11.3276H26.516C27.2904 11.3276 28.0932 11.7691 28.2417 12.5011V12.5166L29.1038 15.8204H57.1904C58.9226 15.8707 59.2556 16.3962 58.8412 17.886L56.1915 28.2608C55.6081 30.4181 53.9199 31.0869 51.625 31.043H33.3308C33.0144 31.0505 32.6977 31.0414 32.3822 31.0159" fill="#037EE6"/>
<path opacity="0.04" fill-rule="evenodd" clip-rule="evenodd" d="M57.4241 19.9556L58.0075 17.6743V17.6665C58.0475 17.522 58.174 17.0094 58.1262 16.8416C57.9661 16.7293 57.3621 16.6944 57.175 16.6879H28.4391L27.4066 12.7154L27.3975 12.6741C27.333 12.3462 26.8064 12.1964 26.5186 12.1964H19.9413C19.6547 12.1964 19.0558 12.3668 19.0558 12.7322C19.0558 13.0976 19.6547 13.268 19.9413 13.268H25.739L27.3356 19.74C31.3721 21.0006 35.5465 21.7666 39.7675 22.0212L39.3351 20.4074C39.2957 20.2611 39.2955 20.1071 39.3346 19.9607C39.3736 19.8143 39.4505 19.6808 39.5576 19.5736C39.6646 19.4664 39.798 19.3893 39.9443 19.3501C40.0905 19.3108 40.2446 19.3108 40.3909 19.3501L45.2413 20.6437C45.379 20.6808 45.5054 20.7516 45.6092 20.8496C45.7129 20.9475 45.7908 21.0697 45.8358 21.2051C45.8808 21.3406 45.8915 21.4851 45.8671 21.6257C45.8426 21.7663 45.7837 21.8986 45.6956 22.0109C49.6697 21.7656 53.6038 21.0753 57.4241 19.953" fill="black"/>
<path fill-rule="evenodd" clip-rule="evenodd" d="M11.224 18.0977H23.279C23.5694 18.0984 23.8477 18.2141 24.0531 18.4195C24.2584 18.6249 24.3741 18.9033 24.3748 19.1938C24.3741 19.4843 24.2584 19.7627 24.0531 19.9681C23.8477 20.1735 23.5694 20.2892 23.279 20.2899H11.224C10.9336 20.2892 10.6552 20.1735 10.4499 19.9681C10.2445 19.7627 10.1289 19.4843 10.1282 19.1938C10.1289 18.9033 10.2445 18.6249 10.4499 18.4195C10.6552 18.2141 10.9336 18.0984 11.224 18.0977Z" fill="#037EE6"/>
<path fill-rule="evenodd" clip-rule="evenodd" d="M15.8459 23.6131H23.9772C24.2676 23.6137 24.546 23.7294 24.7513 23.9348C24.9567 24.1403 25.0723 24.4186 25.073 24.7091C25.0723 24.9996 24.9567 25.278 24.7513 25.4834C24.546 25.6888 24.2676 25.8045 23.9772 25.8052H15.8459C15.5555 25.8045 15.2772 25.6888 15.0718 25.4834C14.8665 25.278 14.7508 24.9996 14.7501 24.7091C14.7508 24.4186 14.8665 24.1403 15.0718 23.9348C15.2772 23.7294 15.5555 23.6137 15.8459 23.6131Z" fill="#037EE6"/>
<path fill-rule="evenodd" clip-rule="evenodd" d="M5.09579 28.6313H26.134C26.4244 28.632 26.7027 28.7477 26.9081 28.9531C27.1134 29.1585 27.2291 29.4369 27.2298 29.7274C27.2291 30.0179 27.1134 30.2963 26.9081 30.5017C26.7027 30.7071 26.4244 30.8228 26.134 30.8235H5.09579C4.80538 30.8228 4.52706 30.7071 4.3217 30.5017C4.11635 30.2963 4.00068 30.0179 4 29.7274C4.00068 29.4369 4.11635 29.1585 4.3217 28.9531C4.52706 28.7477 4.80538 28.632 5.09579 28.6313Z" fill="#037EE6"/>
<path fill-rule="evenodd" clip-rule="evenodd" d="M35.8928 37.8532C36.3035 37.8514 36.7054 37.9716 37.0478 38.1985C37.3901 38.4255 37.6573 38.7489 37.8156 39.128C37.974 39.507 38.0163 39.9245 37.9372 40.3276C37.858 40.7306 37.6611 41.1012 37.3713 41.3922C37.0814 41.6832 36.7117 41.8816 36.3091 41.9622C35.9064 42.0428 35.4888 42.0021 35.1093 41.8451C34.7298 41.6882 34.4055 41.4221 34.1773 41.0805C33.9492 40.739 33.8275 40.3374 33.8277 39.9266C33.8267 39.6547 33.8794 39.3852 33.9827 39.1337C34.086 38.8822 34.238 38.6536 34.4299 38.461C34.6217 38.2683 34.8497 38.1155 35.1008 38.0112C35.3518 37.9069 35.621 37.8532 35.8928 37.8532Z" fill="#037EE6"/>
<path fill-rule="evenodd" clip-rule="evenodd" d="M47.793 37.8532C48.2036 37.8514 48.6056 37.9716 48.9479 38.1985C49.2902 38.4255 49.5574 38.7489 49.7158 39.128C49.8741 39.507 49.9164 39.9245 49.8373 40.3276C49.7582 40.7306 49.5612 41.1012 49.2714 41.3922C48.9815 41.6832 48.6118 41.8816 48.2092 41.9622C47.8065 42.0428 47.389 42.0021 47.0095 41.8451C46.63 41.6882 46.3056 41.4221 46.0774 41.0805C45.8493 40.739 45.7276 40.3374 45.7279 39.9266C45.7268 39.6547 45.7795 39.3852 45.8828 39.1337C45.9861 38.8822 46.1381 38.6536 46.33 38.461C46.5218 38.2683 46.7498 38.1155 47.0009 38.0112C47.2519 37.9069 47.5211 37.8532 47.793 37.8532Z" fill="#037EE6"/>
<path fill-rule="evenodd" clip-rule="evenodd" d="M40.1676 20.1802L42.5915 20.8296L45.0167 21.479L44.2178 22.2781L46.9992 25.0616L45.0477 27.0136L42.2663 24.2315L41.4673 25.0306L40.8168 22.6048L40.1676 20.1802Z" fill="white"/>
</g>
<defs>
<filter id="filter0_d_13_55" x="0" y="0" width="63.0017" height="50.0026" filterUnits="userSpaceOnUse" color-interpolation-filters="sRGB">
<feFlood flood-opacity="0" result="BackgroundImageFix"/>
<feColorMatrix in="SourceAlpha" type="matrix" values="0 0 0 0 0 0 0 0 0 0 0 0 0 0 0 0 0 0 127 0" result="hardAlpha"/>
<feOffset dy="4"/>
<feGaussianBlur stdDeviation="2"/>
<feComposite in2="hardAlpha" operator="out"/>
<feColorMatrix type="matrix" values="0 0 0 0 0 0 0 0 0 0 0 0 0 0 0 0 0 0 0.25 0"/>
<feBlend mode="normal" in2="BackgroundImageFix" result="effect1_dropShadow_13_55"/>
<feBlend mode="normal" in="SourceGraphic" in2="effect1_dropShadow_13_55" result="shape"/>
</filter>
</defs>
</svg>
